<svg viewBox="0 0 191 191" xmlns="http://www.w3.org/2000/svg">
<path d="M84.4998 27.5373C86.8638 14.8209 105.136 14.8209 107.5 27.5373C109.191 36.6338 120.321 40.24 127.051 33.8719C136.459 24.9697 151.242 35.6797 145.659 47.3531C141.665 55.7035 148.544 65.1446 157.742 63.9373C170.601 62.2497 176.247 79.5789 164.85 85.7504C156.696 90.1651 156.696 101.835 164.85 106.25C176.247 112.421 170.601 129.75 157.742 128.063C148.544 126.855 141.665 136.297 145.659 144.647C151.242 156.32 136.459 167.03 127.051 158.128C120.321 151.76 109.191 155.366 107.5 164.463C105.136 177.179 86.8638 177.179 84.4998 164.463C82.8088 155.366 71.6787 151.76 64.9488 158.128C55.5406 167.03 40.7579 156.32 46.3411 144.647C50.3349 136.297 43.4562 126.855 34.2579 128.063C21.3992 129.75 15.7527 112.421 27.1504 106.25C35.3035 101.835 35.3035 90.1651 27.1504 85.7504C15.7527 79.5789 21.3992 62.2497 34.2579 63.9373C43.4562 65.1446 50.3349 55.7035 46.3411 47.3531C40.7579 35.6797 55.5407 24.9697 64.9488 33.8719C71.6787 40.24 82.8088 36.6338 84.4998 27.5373Z" fill="currentColor"/>
</svg>
