<svg viewBox="0 0 191 191" xmlns="http://www.w3.org/2000/svg">
<path d="M69.4729 37.1716C77.8225 11.6095 114.178 11.6095 122.527 37.1716C126.261 48.6033 136.971 56.3431 149.054 56.3431C176.074 56.3431 187.308 90.7367 165.449 106.535C155.673 113.6 151.582 126.123 155.316 137.555C163.666 163.117 134.254 184.374 112.395 168.575C102.619 161.51 89.3812 161.51 79.6053 168.575C57.7458 184.374 28.3339 163.117 36.6835 137.555C40.4176 126.123 36.327 113.6 26.5511 106.535C4.69152 90.7366 15.9258 56.3431 42.9457 56.3431C55.0294 56.3431 65.7388 48.6033 69.4729 37.1716Z" fill="currentColor"/>
</svg>
