<svg viewBox="0 0 56 56" fill="none" xmlns="http://www.w3.org/2000/svg">
<path d="M41.9609 40.7524C37.1379 40.7524 33.1692 36.7837 33.1692 31.9607M33.1692 31.9607C33.1692 27.1377 37.1379 23.1689 41.9609 23.1689C46.784 23.1689 50.7527 27.1377 50.7527 31.9607H33.1692Z" stroke="currentColor" stroke-width="7" stroke-linecap="round" stroke-linejoin="round"/>
<path d="M24.9499 21.4423C24.9499 24.9975 22.0714 27.8674 18.5162 27.876H6V15H18.5162C22.0714 15.0085 24.9499 17.8871 24.9499 21.4423Z" stroke="currentColor" stroke-width="7" stroke-linecap="round" stroke-linejoin="round"/>
<path d="M24.9499 34.3183C24.9499 37.8735 22.0714 40.752 18.5162 40.752H6V27.876H18.5162C22.0714 27.876 24.9499 30.763 24.9499 34.3183Z" stroke="currentColor" stroke-width="7" stroke-linecap="round" stroke-linejoin="round"/>
<path d="M37.6545 15H46.2675" stroke="currentColor" stroke-width="7" stroke-linecap="round" stroke-linejoin="round"/>
</svg>
