<svg viewBox="0 0 56 56" fill="none" xmlns="http://www.w3.org/2000/svg">
<path d="M39.9889 6H16.7639C10.8191 6 6 10.8191 6 16.7639V39.9889C6 45.9336 10.8191 50.7527 16.7639 50.7527H39.9889C45.9336 50.7527 50.7527 45.9336 50.7527 39.9889V16.7639C50.7527 10.8191 45.9336 6 39.9889 6Z" stroke="currentColor" stroke-width="6.84154" stroke-linecap="round" stroke-linejoin="round"/>
<path d="M28.3763 38.7194C34.0887 38.7194 38.7194 34.0887 38.7194 28.3763C38.7194 22.664 34.0887 18.0332 28.3763 18.0332C22.664 18.0332 18.0332 22.664 18.0332 28.3763C18.0332 34.0887 22.664 38.7194 28.3763 38.7194Z" stroke="currentColor" stroke-width="6.84154" stroke-linecap="round" stroke-linejoin="round"/>
<path d="M41.5526 18.1575C43.2902 18.1575 44.6987 16.7489 44.6987 15.0114C44.6987 13.2738 43.2902 11.8652 41.5526 11.8652C39.8151 11.8652 38.4065 13.2738 38.4065 15.0114C38.4065 16.7489 39.8151 18.1575 41.5526 18.1575Z" fill="currentColor"/>
</svg>
